<svg xmlns="http://www.w3.org/2000/svg" width="1792" height="1792" id="bicycle">
  <path d="M592.667 1093.333H348.444q-31.11 0-44.722-27.222-13.61-27.222 5.056-52.111L455 818.778q-50.556-24.111-106.556-24.111-102.666 0-175.777 73.11-73.111 73.112-73.111 175.779 0 102.666 73.11 175.777 73.112 73.111 175.778 73.111 89.445 0 157.89-56.388 68.444-56.39 86.333-142.723zM448 993.778h144.667q-14-66.111-58.334-115.111zm373.333 0 224-298.667H672l-77 102.667q81.667 80.11 98 196h128.333zm871.111 49.778q0-102.667-73.11-175.778-73.112-73.111-175.778-73.111-46.667 0-94.112 18.666l135.334 202.223q11.666 17.888 7.778 38.11-3.89 20.223-21 31.112-11.667 8.555-28 8.555-27.223 0-41.223-22.555L1267 868.556q-72.333 73.888-72.333 175 0 102.666 73.11 175.777 73.112 73.111 175.779 73.111 102.666 0 175.777-73.11 73.111-73.112 73.111-175.778zm99.556 0q0 143.888-102.278 246.166Q1587.444 1392 1443.556 1392q-143.89 0-246.167-102.278-102.278-102.278-102.278-246.166 0-75.445 30.722-142.723 30.723-67.277 85.167-116.277l-50.556-76.223-274.555 364.778q-14 20.222-39.667 20.222H693q-17.889 127.556-115.889 213.111-98 85.556-228.667 85.556-143.888 0-246.166-102.278Q0 1187.444 0 1043.556q0-143.89 102.278-246.167Q204.556 695.11 348.444 695.11q88.667 0 167.223 42.778l106.555-142.333H448q-20.222 0-35-14.778-14.778-14.778-14.778-35t14.778-35Q427.778 496 448 496h298.667v99.556H1085L1018.889 496H846.222q-20.222 0-35-14.778-14.778-14.778-14.778-35t14.778-35q14.778-14.778 35-14.778h199.111q25.667 0 41.223 21.778l207.666 311.111q70.778-34.222 149.334-34.222 143.888 0 246.166 102.278Q1792 899.667 1792 1043.556Z"></path>
</svg>
