<svg xmlns="http://www.w3.org/2000/svg" width="32" height="32" id="bicycle">
  <g color="#000" font-family="sans-serif" font-weight="400">
    <path fill="#f05542" d="M-211.045 6.344c-3.28 0-5.955 2.645-5.955 5.899s2.674 5.897 5.955 5.897c3.28 0 5.955-2.643 5.955-5.897 0-3.254-2.675-5.9-5.955-5.9zm0 .987c2.753 0 4.968 2.197 4.968 4.912s-2.215 4.91-4.968 4.91-4.968-2.195-4.968-4.91c0-2.715 2.215-4.912 4.968-4.912z" overflow="visible" style="line-height:normal;text-indent:0;text-align:start;text-decoration-line:none;text-decoration-style:solid;text-decoration-color:#000;text-transform:none;block-progression:tb;isolation:auto;mix-blend-mode:normal" transform="translate(217 6.638)"></path>
    <path fill="#2b4255" fill-rule="evenodd" d="M-202.26 9.91a.493.493 0 0 0-.034.003l-8.38.854a.493.493 0 1 0 .101.98l8.38-.853a.493.493 0 1 0-.066-.985z" overflow="visible" style="line-height:normal;text-indent:0;text-align:start;text-decoration-line:none;text-decoration-style:solid;text-decoration-color:#000;text-transform:none;block-progression:tb;isolation:auto;mix-blend-mode:normal" transform="translate(217 6.638)"></path>
    <path fill="#2b4255" fill-rule="evenodd" d="M-205.441 2.193a.493.493 0 0 0-.4.225l-5.992 8.965a.494.494 0 0 0 .82.55l5.992-8.967a.493.493 0 0 0-.42-.773zm-5.18 10.549a.493.493 0 0 0-.052.985l7.693.784a.494.494 0 0 0 .1-.983l-7.693-.782a.493.493 0 0 0-.048-.004zm15.265-9.834a.493.493 0 0 0-.395.235l-4.15 6.608a.494.494 0 0 0 .837.524l4.149-6.606a.493.493 0 0 0-.441-.761z" overflow="visible" style="line-height:normal;text-indent:0;text-align:start;text-decoration-line:none;text-decoration-style:solid;text-decoration-color:#000;text-transform:none;block-progression:tb;isolation:auto;mix-blend-mode:normal" transform="translate(217 6.638)"></path>
    <path fill="#f05542" d="M-190.955 6.344c-3.28 0-5.957 2.645-5.957 5.899s2.677 5.897 5.957 5.897S-185 15.497-185 12.243c0-3.254-2.674-5.9-5.955-5.9zm0 .987c2.753 0 4.968 2.197 4.968 4.912s-2.215 4.91-4.968 4.91-4.97-2.195-4.97-4.91c0-2.715 2.217-4.912 4.97-4.912z" overflow="visible" style="line-height:normal;text-indent:0;text-align:start;text-decoration-line:none;text-decoration-style:solid;text-decoration-color:#000;text-transform:none;block-progression:tb;isolation:auto;mix-blend-mode:normal" transform="translate(217 6.638)"></path>
    <path fill="#2b4255" fill-rule="evenodd" d="m-194.653-.137-2.286.023a.493.493 0 0 0-.431.727l5.756 10.774a.493.493 0 1 0 .87-.464L-196.117.865l1.498-.015a.493.493 0 0 0 .027-.002c.709-.045.994.34 1.056.668.03.165-.004.3-.08.393-.074.094-.2.182-.506.184h-.362a.493.493 0 1 0 0 .986h.364a.493.493 0 0 0 .002 0c.535-.002.997-.207 1.274-.55.276-.345.355-.787.279-1.194-.152-.814-.96-1.544-2.089-1.472z" overflow="visible" style="line-height:normal;text-indent:0;text-align:start;text-decoration-line:none;text-decoration-style:solid;text-decoration-color:#000;text-transform:none;block-progression:tb;isolation:auto;mix-blend-mode:normal" transform="translate(217 6.638)"></path>
    <path fill="#2b4255" fill-rule="evenodd" d="M-204.96 2.833a.493.493 0 1 0 0 .986h9.584a.493.493 0 1 0 0-.986h-9.583z" overflow="visible" style="line-height:normal;text-indent:0;text-align:start;text-decoration-line:none;text-decoration-style:solid;text-decoration-color:#000;text-transform:none;block-progression:tb;isolation:auto;mix-blend-mode:normal" transform="translate(217 6.638)"></path>
    <path fill="#2b4255" fill-rule="evenodd" d="M-206.037.96a.493.493 0 0 0-.435.726l4.534 8.5a.494.494 0 1 0 .872-.464l-4.15-7.776h.875c.326 0 .337.126.345.154a.493.493 0 1 0 .952-.258c-.123-.456-.611-.883-1.297-.883h-1.696z" overflow="visible" style="line-height:normal;text-indent:0;text-align:start;text-decoration-line:none;text-decoration-style:solid;text-decoration-color:#000;text-transform:none;block-progression:tb;isolation:auto;mix-blend-mode:normal" transform="translate(217 6.638)"></path>
    <path fill="#2b4255" d="M-190.955 10.763c-.815 0-1.491.665-1.491 1.48 0 .814.676 1.48 1.491 1.48.815 0 1.49-.666 1.49-1.48 0-.815-.675-1.48-1.49-1.48zm0 .986a.49.49 0 0 1 .503.494.49.49 0 0 1-.503.493.492.492 0 0 1-.505-.493c0-.276.218-.494.505-.494zm-19.664-.986c-.815 0-1.49.665-1.49 1.48a1.492 1.492 0 0 0 2.981 0c0-.815-.676-1.48-1.491-1.48zm0 .986c.287 0 .505.218.505.494a.492.492 0 0 1-.505.493.49.49 0 0 1-.503-.493.49.49 0 0 1 .503-.494z" overflow="visible" style="line-height:normal;text-indent:0;text-align:start;text-decoration-line:none;text-decoration-style:solid;text-decoration-color:#000;text-transform:none;block-progression:tb;isolation:auto;mix-blend-mode:normal" transform="translate(217 6.638)"></path>
    <path fill="#2b4255" fill-rule="evenodd" d="M-201.01 14.665a.493.493 0 0 0-.492.443l-.172 1.46a.493.493 0 1 0 .98.113l.171-1.457a.493.493 0 0 0-.488-.559z" overflow="visible" style="line-height:normal;text-indent:0;text-align:start;text-decoration-line:none;text-decoration-style:solid;text-decoration-color:#000;text-transform:none;block-progression:tb;isolation:auto;mix-blend-mode:normal" transform="translate(217 6.638)"></path>
    <path fill="#2b4255" fill-rule="evenodd" d="M-201.997 16.057a.493.493 0 0 0-.064.984l1.638.187a.493.493 0 1 0 .112-.979l-1.638-.189a.493.493 0 0 0-.048-.003zm1.682-8.597a.493.493 0 0 0-.491.443l-.199 1.688a.493.493 0 1 0 .98.116l.198-1.69a.493.493 0 0 0-.488-.557z" overflow="visible" style="line-height:normal;text-indent:0;text-align:start;text-decoration-line:none;text-decoration-style:solid;text-decoration-color:#000;text-transform:none;block-progression:tb;isolation:auto;mix-blend-mode:normal" transform="translate(217 6.638)"></path>
    <path fill="#2b4255" fill-rule="evenodd" d="M-201.176 7.352a.493.493 0 0 0-.014.983l1.638.188a.494.494 0 0 0 .112-.98l-1.638-.187a.493.493 0 0 0-.098-.004z" overflow="visible" style="line-height:normal;text-indent:0;text-align:start;text-decoration-line:none;text-decoration-style:solid;text-decoration-color:#000;text-transform:none;block-progression:tb;isolation:auto;mix-blend-mode:normal" transform="translate(217 6.638)"></path>
    <path fill="#2b4255" d="M-200.787 9.545c-1.626 0-2.96 1.316-2.96 2.933 0 1.617 1.334 2.935 2.96 2.935s2.96-1.318 2.96-2.935-1.334-2.933-2.96-2.933zm0 .987c1.098 0 1.973.868 1.973 1.946a1.954 1.954 0 0 1-1.973 1.948 1.954 1.954 0 0 1-1.973-1.948c0-1.078.874-1.946 1.973-1.946z" overflow="visible" style="line-height:normal;text-indent:0;text-align:start;text-decoration-line:none;text-decoration-style:solid;text-decoration-color:#000;text-transform:none;block-progression:tb;isolation:auto;mix-blend-mode:normal" transform="translate(217 6.638)"></path>
    <path fill="#2b4255" d="M-200.787 11.011a1.48 1.48 0 0 0-1.48 1.467c0 .808.672 1.468 1.48 1.468.808 0 1.48-.66 1.48-1.468a1.48 1.48 0 0 0-1.48-1.467zm0 .987a.48.48 0 1 1 0 .962.48.48 0 1 1 0-.962z" overflow="visible" style="line-height:normal;text-indent:0;text-align:start;text-decoration-line:none;text-decoration-style:solid;text-decoration-color:#000;text-transform:none;block-progression:tb;isolation:auto;mix-blend-mode:normal" transform="translate(217 6.638)"></path>
    <path fill="#2b4255" fill-rule="evenodd" d="M-214.6 17.88a.493.493 0 1 0 0 .986h7.893a.493.493 0 1 0 0-.986h-7.894zm21.205 0a.493.493 0 1 0 0 .986h7.894a.493.493 0 1 0 0-.986h-7.894zm-4.004 0a.493.493 0 1 0 0 .986h2.031a.493.493 0 1 0 0-.986h-2.031z" overflow="visible" style="line-height:normal;text-indent:0;text-align:start;text-decoration-line:none;text-decoration-style:solid;text-decoration-color:#000;text-transform:none;block-progression:tb;isolation:auto;mix-blend-mode:normal" transform="translate(217 6.638)"></path>
  </g>
</svg>
