<svg width="96" height="96" viewBox="0 0 96 96" fill="none" xmlns="http://www.w3.org/2000/svg">
<g filter="url(#filter0_d_20_737)">
<path d="M37.5826 8.97101C37.2212 8.3686 36.5701 8 35.8676 8H16.5324C14.9778 8 14.0176 9.69594 14.8174 11.029L36.4174 47.029C36.7788 47.6314 37.4298 48 38.1324 48H57.4676C59.0222 48 59.9824 46.3041 59.1826 44.971L37.5826 8.97101Z" fill="#C52229"/>
<path fill-rule="evenodd" clip-rule="evenodd" d="M35.8675 6H16.5322C13.423 6 11.5026 9.39189 13.1022 12.058L34.7022 48.058C35.4251 49.2628 36.7272 50 38.1322 50H57.4675C60.5766 50 62.4971 46.6081 60.8974 43.942L39.2974 7.94202C38.5745 6.7372 37.2725 6 35.8675 6ZM35.8675 8C36.57 8 37.221 8.3686 37.5824 8.97101L59.1824 44.971C59.9823 46.3041 59.022 48 57.4675 48H38.1322C37.4297 48 36.7787 47.6314 36.4172 47.029L14.8172 11.029C14.0174 9.69594 14.9776 8 16.5322 8H35.8675Z" fill="#9B0F15"/>
<path d="M58.4174 8.97101C58.7788 8.3686 59.4299 8 60.1324 8H79.4676C81.0222 8 81.9824 9.69594 81.1826 11.029L59.5826 47.029C59.2212 47.6314 58.5702 48 57.8676 48H38.5324C36.9778 48 36.0176 46.3041 36.8174 44.971L58.4174 8.97101Z" fill="#F1333B"/>
<path fill-rule="evenodd" clip-rule="evenodd" d="M60.1323 6H79.4675C82.5767 6 84.4972 9.39189 82.8975 12.058L61.2975 48.058C60.5746 49.2628 59.2726 50 57.8675 50H38.5323C35.4231 50 33.5027 46.6081 35.1023 43.942L56.7023 7.94202C57.4252 6.7372 58.7272 6 60.1323 6ZM60.1323 8C59.4298 8 58.7788 8.3686 58.4173 8.97101L36.8173 44.971C36.0175 46.3041 36.9777 48 38.5323 48H57.8675C58.5701 48 59.2211 47.6314 59.5825 47.029L81.1825 11.029C81.9824 9.69594 81.0221 8 79.4675 8H60.1323Z" fill="#9B0F15"/>
<path fill-rule="evenodd" clip-rule="evenodd" d="M60.5021 9.13513C60.9797 9.41245 61.142 10.0244 60.8647 10.5021L51.8647 26.0021C51.5874 26.4797 50.9754 26.642 50.4978 26.3647C50.0202 26.0874 49.8578 25.4754 50.1351 24.9978L59.1351 9.49779C59.4125 9.02018 60.0244 8.85781 60.5021 9.13513Z" fill="#FE666D"/>
<path fill-rule="evenodd" clip-rule="evenodd" d="M16.4979 9.13513C16.0203 9.41245 15.858 10.0244 16.1353 10.5021L25.1353 26.0021C25.4126 26.4797 26.0246 26.642 26.5022 26.3647C26.9798 26.0874 27.1422 25.4754 26.8649 24.9978L17.8649 9.49779C17.5875 9.02018 16.9756 8.85781 16.4979 9.13513Z" fill="#DF3840"/>
<path d="M35.5 11.2812C35.5 11.9889 34.9404 12.5625 34.25 12.5625C33.5596 12.5625 33 11.9889 33 11.2812C33 10.5736 33.5596 10 34.25 10C34.9404 10 35.5 10.5736 35.5 11.2812Z" fill="#AA161D"/>
<path d="M31.1098 11.5938C31.1098 12.474 30.4136 13.1875 29.5549 13.1875C28.6961 13.1875 28 12.474 28 11.5938C28 10.7135 28.6961 10 29.5549 10C30.4136 10 31.1098 10.7135 31.1098 11.5938Z" fill="#AA161D"/>
<path d="M34.9999 16.1562C34.9999 17.0365 34.3038 17.75 33.445 17.75C32.5863 17.75 31.8901 17.0365 31.8901 16.1562C31.8901 15.276 32.5863 14.5625 33.445 14.5625C34.3038 14.5625 34.9999 15.276 34.9999 16.1562Z" fill="#AA161D"/>
<path d="M38.5549 13.9844C38.5549 14.4245 38.2068 14.7812 37.7774 14.7812C37.3481 14.7812 37 14.4245 37 13.9844C37 13.5443 37.3481 13.1875 37.7774 13.1875C38.2068 13.1875 38.5549 13.5443 38.5549 13.9844Z" fill="#AA161D"/>
<path d="M30.3322 15.3594C30.3322 15.7995 29.9842 16.1562 29.5548 16.1562C29.1254 16.1562 28.7773 15.7995 28.7773 15.3594C28.7773 14.9193 29.1254 14.5625 29.5548 14.5625C29.9842 14.5625 30.3322 14.9193 30.3322 15.3594Z" fill="#AA161D"/>
<path d="M25.9999 10.4844C25.9999 10.9245 25.6519 11.2812 25.2225 11.2812C24.7931 11.2812 24.4451 10.9245 24.4451 10.4844C24.4451 10.0443 24.7931 9.6875 25.2225 9.6875C25.6519 9.6875 25.9999 10.0443 25.9999 10.4844Z" fill="#AA161D"/>
<path d="M37.7773 19.5469C37.7773 19.987 37.4292 20.3438 36.9999 20.3438C36.5705 20.3438 36.2224 19.987 36.2224 19.5469C36.2224 19.1068 36.5705 18.75 36.9999 18.75C37.4292 18.75 37.7773 19.1068 37.7773 19.5469Z" fill="#AA161D"/>
<path d="M33.7773 20.3438C33.7773 20.7839 33.4292 21.1406 32.9999 21.1406C32.5705 21.1406 32.2224 20.7839 32.2224 20.3438C32.2224 19.9036 32.5705 19.5469 32.9999 19.5469C33.4292 19.5469 33.7773 19.9036 33.7773 20.3438Z" fill="#AA161D"/>
<path d="M41.5305 17.4531C41.5305 18.1694 40.964 18.75 40.2652 18.75C39.5665 18.75 39 18.1694 39 17.4531C39 16.7369 39.5665 16.1562 40.2652 16.1562C40.964 16.1562 41.5305 16.7369 41.5305 17.4531Z" fill="#AA161D"/>
<path d="M43.1799 21.1406C43.1799 21.5807 42.8318 21.9375 42.4024 21.9375C41.9731 21.9375 41.625 21.5807 41.625 21.1406C41.625 20.7005 41.9731 20.3438 42.4024 20.3438C42.8318 20.3438 43.1799 20.7005 43.1799 21.1406Z" fill="#AA161D"/>
<path d="M75 61C75 75.9117 62.9117 88 48 88C33.0883 88 21 75.9117 21 61C21 46.0883 33.0883 34 48 34C62.9117 34 75 46.0883 75 61Z" fill="#DCA16A"/>
<path fill-rule="evenodd" clip-rule="evenodd" d="M77 61C77 77.0163 64.0163 90 48 90C31.9837 90 19 77.0163 19 61C19 44.9837 31.9837 32 48 32C64.0163 32 77 44.9837 77 61ZM48 88C62.9117 88 75 75.9117 75 61C75 46.0883 62.9117 34 48 34C33.0883 34 21 46.0883 21 61C21 75.9117 33.0883 88 48 88Z" fill="#C38144"/>
<path fill-rule="evenodd" clip-rule="evenodd" d="M23 62C22.4477 62 22 61.5523 22 61C22 46.6406 33.6406 35 48 35C48.5523 35 49 35.4477 49 36C49 36.5523 48.5523 37 48 37C34.7452 37 24 47.7452 24 61C24 61.5523 23.5523 62 23 62Z" fill="#F0B57F"/>
<path fill-rule="evenodd" clip-rule="evenodd" d="M73 60C73.5523 60 74 60.4477 74 61C74 75.3594 62.3594 87 48 87C47.4477 87 47 86.5523 47 86C47 85.4477 47.4477 85 48 85C61.2548 85 72 74.2548 72 61C72 60.4477 72.4477 60 73 60Z" fill="#CF945D"/>
<path d="M68 61C68 72.0457 59.0457 81 48 81C36.9543 81 28 72.0457 28 61C28 49.9543 36.9543 41 48 41C59.0457 41 68 49.9543 68 61Z" fill="#F7BA82"/>
<path fill-rule="evenodd" clip-rule="evenodd" d="M70 61C70 73.1503 60.1503 83 48 83C35.8497 83 26 73.1503 26 61C26 48.8497 35.8497 39 48 39C60.1503 39 70 48.8497 70 61ZM48 81C59.0457 81 68 72.0457 68 61C68 49.9543 59.0457 41 48 41C36.9543 41 28 49.9543 28 61C28 72.0457 36.9543 81 48 81Z" fill="#C38144"/>
<path fill-rule="evenodd" clip-rule="evenodd" d="M48 78C57.3888 78 65 70.3888 65 61C65 60.4477 65.4477 60 66 60C66.5523 60 67 60.4477 67 61C67 71.4934 58.4934 80 48 80C47.4477 80 47 79.5523 47 79C47 78.4477 47.4477 78 48 78Z" fill="#E6A66C"/>
<path fill-rule="evenodd" clip-rule="evenodd" d="M48 44C38.6112 44 31 51.6112 31 61C31 61.5523 30.5523 62 30 62C29.4477 62 29 61.5523 29 61C29 50.5066 37.5066 42 48 42C48.5523 42 49 42.4477 49 43C49 43.5523 48.5523 44 48 44Z" fill="#FFD5AE"/>
<mask id="path-25-outside-1_20_737" maskUnits="userSpaceOnUse" x="39" y="49" width="17" height="23" fill="black">
<rect fill="white" x="39" y="49" width="17" height="23"/>
<path d="M45.6055 58.9688H47.4102C48.2695 58.9688 48.9062 58.7539 49.3203 58.3242C49.7344 57.8945 49.9414 57.3242 49.9414 56.6133C49.9414 55.9258 49.7344 55.3906 49.3203 55.0078C48.9141 54.625 48.3516 54.4336 47.6328 54.4336C46.9844 54.4336 46.4414 54.6133 46.0039 54.9727C45.5664 55.3242 45.3477 55.7852 45.3477 56.3555H41.9609C41.9609 55.4648 42.1992 54.668 42.6758 53.9648C43.1602 53.2539 43.832 52.6992 44.6914 52.3008C45.5586 51.9023 46.5117 51.7031 47.5508 51.7031C49.3555 51.7031 50.7695 52.1367 51.793 53.0039C52.8164 53.8633 53.3281 55.0508 53.3281 56.5664C53.3281 57.3477 53.0898 58.0664 52.6133 58.7227C52.1367 59.3789 51.5117 59.8828 50.7383 60.2344C51.6992 60.5781 52.4141 61.0938 52.8828 61.7812C53.3594 62.4688 53.5977 63.2812 53.5977 64.2188C53.5977 65.7344 53.043 66.9492 51.9336 67.8633C50.832 68.7773 49.3711 69.2344 47.5508 69.2344C45.8477 69.2344 44.4531 68.7852 43.3672 67.8867C42.2891 66.9883 41.75 65.8008 41.75 64.3242H45.1367C45.1367 64.9648 45.375 65.4883 45.8516 65.8945C46.3359 66.3008 46.9297 66.5039 47.6328 66.5039C48.4375 66.5039 49.0664 66.293 49.5195 65.8711C49.9805 65.4414 50.2109 64.875 50.2109 64.1719C50.2109 62.4688 49.2734 61.6172 47.3984 61.6172H45.6055V58.9688Z"/>
</mask>
<path d="M45.6055 58.9688H47.4102C48.2695 58.9688 48.9062 58.7539 49.3203 58.3242C49.7344 57.8945 49.9414 57.3242 49.9414 56.6133C49.9414 55.9258 49.7344 55.3906 49.3203 55.0078C48.9141 54.625 48.3516 54.4336 47.6328 54.4336C46.9844 54.4336 46.4414 54.6133 46.0039 54.9727C45.5664 55.3242 45.3477 55.7852 45.3477 56.3555H41.9609C41.9609 55.4648 42.1992 54.668 42.6758 53.9648C43.1602 53.2539 43.832 52.6992 44.6914 52.3008C45.5586 51.9023 46.5117 51.7031 47.5508 51.7031C49.3555 51.7031 50.7695 52.1367 51.793 53.0039C52.8164 53.8633 53.3281 55.0508 53.3281 56.5664C53.3281 57.3477 53.0898 58.0664 52.6133 58.7227C52.1367 59.3789 51.5117 59.8828 50.7383 60.2344C51.6992 60.5781 52.4141 61.0938 52.8828 61.7812C53.3594 62.4688 53.5977 63.2812 53.5977 64.2188C53.5977 65.7344 53.043 66.9492 51.9336 67.8633C50.832 68.7773 49.3711 69.2344 47.5508 69.2344C45.8477 69.2344 44.4531 68.7852 43.3672 67.8867C42.2891 66.9883 41.75 65.8008 41.75 64.3242H45.1367C45.1367 64.9648 45.375 65.4883 45.8516 65.8945C46.3359 66.3008 46.9297 66.5039 47.6328 66.5039C48.4375 66.5039 49.0664 66.293 49.5195 65.8711C49.9805 65.4414 50.2109 64.875 50.2109 64.1719C50.2109 62.4688 49.2734 61.6172 47.3984 61.6172H45.6055V58.9688Z" fill="#FFD5AE"/>
<path d="M45.6055 58.9688V56.9688C44.5009 56.9688 43.6055 57.8642 43.6055 58.9688H45.6055ZM49.3203 55.0078L47.9487 56.4634C47.9533 56.4677 47.958 56.4721 47.9626 56.4764L49.3203 55.0078ZM46.0039 54.9727L47.2567 56.5317C47.2623 56.5272 47.2678 56.5227 47.2734 56.5181L46.0039 54.9727ZM45.3477 56.3555V58.3555C46.4522 58.3555 47.3477 57.46 47.3477 56.3555H45.3477ZM41.9609 56.3555H39.9609C39.9609 57.46 40.8564 58.3555 41.9609 58.3555V56.3555ZM42.6758 53.9648L41.0229 52.8387L41.0202 52.8427L42.6758 53.9648ZM44.6914 52.3008L43.8564 50.4834L43.8502 50.4863L44.6914 52.3008ZM51.793 53.0039L50.5 54.5298L50.5069 54.5355L51.793 53.0039ZM50.7383 60.2344L49.9107 58.4136C49.1692 58.7507 48.7062 59.5037 48.74 60.3174C48.7738 61.1312 49.2978 61.8432 50.0646 62.1175L50.7383 60.2344ZM52.8828 61.7812L51.2304 62.9079C51.2333 62.9122 51.2362 62.9164 51.2391 62.9206L52.8828 61.7812ZM51.9336 67.8633L50.6618 66.3197L50.6564 66.3242L51.9336 67.8633ZM43.3672 67.8867L42.0868 69.4232L42.0923 69.4277L43.3672 67.8867ZM41.75 64.3242V62.3242C40.6454 62.3242 39.75 63.2196 39.75 64.3242H41.75ZM45.1367 64.3242H47.1367C47.1367 63.2196 46.2413 62.3242 45.1367 62.3242V64.3242ZM45.8516 65.8945L44.5541 67.4166C44.5582 67.42 44.5622 67.4235 44.5663 67.4269L45.8516 65.8945ZM49.5195 65.8711L50.8824 67.3349L50.8833 67.334L49.5195 65.8711ZM45.6055 61.6172H43.6055C43.6055 62.7218 44.5009 63.6172 45.6055 63.6172V61.6172ZM45.6055 60.9688H47.4102V56.9688H45.6055V60.9688ZM47.4102 60.9688C48.5713 60.9688 49.8295 60.6781 50.7605 59.712L47.8802 56.9364C47.9223 56.8927 47.9462 56.8946 47.8928 56.9126C47.8287 56.9342 47.68 56.9688 47.4102 56.9688V60.9688ZM50.7605 59.712C51.6009 58.8399 51.9414 57.7362 51.9414 56.6133H47.9414C47.9414 56.7752 47.9179 56.8594 47.9062 56.8918C47.8966 56.9181 47.8895 56.9268 47.8802 56.9364L50.7605 59.712ZM51.9414 56.6133C51.9414 55.4999 51.5892 54.3817 50.678 53.5393L47.9626 56.4764C47.9555 56.4698 47.9454 56.4587 47.9356 56.4442C47.9259 56.4299 47.9215 56.4196 47.9208 56.4179C47.9196 56.4147 47.9414 56.4686 47.9414 56.6133H51.9414ZM50.6919 53.5522C49.817 52.7278 48.7095 52.4336 47.6328 52.4336V56.4336C47.8175 56.4336 47.914 56.4584 47.9495 56.4705C47.9775 56.4801 47.9672 56.4808 47.9487 56.4634L50.6919 53.5522ZM47.6328 52.4336C46.5923 52.4336 45.581 52.7318 44.7344 53.4272L47.2734 56.5181C47.3018 56.4947 47.3764 56.4336 47.6328 56.4336V52.4336ZM44.7511 53.4136C43.8324 54.1519 43.3477 55.1905 43.3477 56.3555H47.3477C47.3477 56.3411 47.349 56.3451 47.3451 56.3633C47.3411 56.3821 47.3331 56.409 47.3186 56.4395C47.3041 56.4701 47.2874 56.4953 47.2727 56.5135C47.2584 56.5312 47.2506 56.5366 47.2567 56.5317L44.7511 53.4136ZM45.3477 54.3555H41.9609V58.3555H45.3477V54.3555ZM43.9609 56.3555C43.9609 55.8444 44.0905 55.4423 44.3313 55.0869L41.0202 52.8427C40.308 53.8936 39.9609 55.0853 39.9609 56.3555H43.9609ZM44.3286 55.091C44.5894 54.7082 44.9669 54.3776 45.5327 54.1152L43.8502 50.4863C42.6972 51.0209 41.7309 51.7996 41.0229 52.8387L44.3286 55.091ZM45.5264 54.1181C46.1091 53.8504 46.774 53.7031 47.5508 53.7031V49.7031C46.2494 49.7031 45.0081 49.9543 43.8564 50.4834L45.5264 54.1181ZM47.5508 53.7031C49.0464 53.7031 49.9461 54.0604 50.5 54.5298L53.0859 51.478C51.593 50.213 49.6646 49.7031 47.5508 49.7031V53.7031ZM50.5069 54.5355C51.0138 54.9613 51.3281 55.5529 51.3281 56.5664H55.3281C55.3281 54.5487 54.619 52.7653 53.0791 51.4723L50.5069 54.5355ZM51.3281 56.5664C51.3281 56.9086 51.2336 57.2189 50.995 57.5475L54.2316 59.8979C54.9461 58.9139 55.3281 57.7867 55.3281 56.5664H51.3281ZM50.995 57.5475C50.7315 57.9102 50.3847 58.1982 49.9107 58.4136L51.5659 62.0551C52.6387 61.5675 53.5419 60.8476 54.2316 59.8979L50.995 57.5475ZM50.0646 62.1175C50.7193 62.3517 51.0493 62.6424 51.2304 62.9079L54.5353 60.6546C53.7788 59.5451 52.6791 58.8045 51.4119 58.3512L50.0646 62.1175ZM51.2391 62.9206C51.4562 63.2338 51.5977 63.6373 51.5977 64.2188H55.5977C55.5977 62.9252 55.2626 61.7037 54.5265 60.6419L51.2391 62.9206ZM51.5977 64.2188C51.5977 65.1742 51.282 65.8087 50.6618 66.3197L53.2054 69.4068C54.8039 68.0897 55.5977 66.2945 55.5977 64.2188H51.5977ZM50.6564 66.3242C50.0023 66.867 49.0342 67.2344 47.5508 67.2344V71.2344C49.708 71.2344 51.6618 70.6877 53.2107 69.4024L50.6564 66.3242ZM47.5508 67.2344C46.2123 67.2344 45.2988 66.889 44.6421 66.3457L42.0923 69.4277C43.6075 70.6813 45.483 71.2344 47.5508 71.2344V67.2344ZM44.6476 66.3503C44.052 65.854 43.75 65.2427 43.75 64.3242H39.75C39.75 66.3589 40.5261 68.1226 42.0868 69.4232L44.6476 66.3503ZM41.75 66.3242H45.1367V62.3242H41.75V66.3242ZM43.1367 64.3242C43.1367 65.5351 43.6201 66.6204 44.5541 67.4166L47.149 64.3725C47.1291 64.3555 47.123 64.347 47.1243 64.3488C47.126 64.351 47.1309 64.3581 47.1357 64.3686C47.1404 64.3791 47.1414 64.3847 47.1408 64.3816C47.14 64.3779 47.1367 64.3601 47.1367 64.3242H43.1367ZM44.5663 67.4269C45.4518 68.1695 46.5159 68.5039 47.6328 68.5039V64.5039C47.3434 64.5039 47.2201 64.432 47.1368 64.3621L44.5663 67.4269ZM47.6328 68.5039C48.7869 68.5039 49.9587 68.1949 50.8824 67.3349L48.1567 64.4073C48.1535 64.4103 48.1358 64.4281 48.072 64.4495C48.0009 64.4734 47.8634 64.5039 47.6328 64.5039V68.5039ZM50.8833 67.334C51.7993 66.4802 52.2109 65.3587 52.2109 64.1719H48.2109C48.2109 64.3034 48.1899 64.3595 48.1856 64.3702C48.1829 64.3768 48.1809 64.3801 48.179 64.3828C48.1771 64.3856 48.1708 64.3941 48.1558 64.4082L50.8833 67.334ZM52.2109 64.1719C52.2109 62.9598 51.8685 61.6982 50.8525 60.7754C49.8731 59.8857 48.5992 59.6172 47.3984 59.6172V63.6172C48.0727 63.6172 48.2051 63.7744 48.1631 63.7363C48.141 63.7163 48.1431 63.7037 48.1576 63.7432C48.1763 63.7942 48.2109 63.9244 48.2109 64.1719H52.2109ZM47.3984 59.6172H45.6055V63.6172H47.3984V59.6172ZM47.6055 61.6172V58.9688H43.6055V61.6172H47.6055Z" fill="#C28044" mask="url(#path-25-outside-1_20_737)"/>
</g>
<defs>
<filter id="filter0_d_20_737" x="0" y="0" width="98" height="98" filterUnits="userSpaceOnUse" color-interpolation-filters="sRGB">
<feFlood flood-opacity="0" result="BackgroundImageFix"/>
<feColorMatrix in="SourceAlpha" type="matrix" values="0 0 0 0 0 0 0 0 0 0 0 0 0 0 0 0 0 0 127 0" result="hardAlpha"/>
<feOffset dx="2" dy="2"/>
<feColorMatrix type="matrix" values="0 0 0 0 0.637788 0 0 0 0 0.545996 0 0 0 0 0.47948 0 0 0 0.2 0"/>
<feBlend mode="normal" in2="BackgroundImageFix" result="effect1_dropShadow_20_737"/>
<feBlend mode="normal" in="SourceGraphic" in2="effect1_dropShadow_20_737" result="shape"/>
</filter>
</defs>
</svg>
