<svg width="96" height="96" viewBox="0 0 96 96" fill="none" xmlns="http://www.w3.org/2000/svg">
<g filter="url(#filter0_d_20_735)">
<path d="M37.5826 8.97101C37.2212 8.3686 36.5701 8 35.8676 8H16.5324C14.9778 8 14.0176 9.69594 14.8174 11.029L36.4174 47.029C36.7788 47.6314 37.4298 48 38.1324 48H57.4676C59.0222 48 59.9824 46.3041 59.1826 44.971L37.5826 8.97101Z" fill="#C52229"/>
<path fill-rule="evenodd" clip-rule="evenodd" d="M35.8675 6H16.5322C13.423 6 11.5026 9.39189 13.1022 12.058L34.7022 48.058C35.4251 49.2628 36.7272 50 38.1322 50H57.4675C60.5766 50 62.4971 46.6081 60.8974 43.942L39.2974 7.94202C38.5745 6.7372 37.2725 6 35.8675 6ZM35.8675 8C36.57 8 37.221 8.3686 37.5824 8.97101L59.1824 44.971C59.9823 46.3041 59.022 48 57.4675 48H38.1322C37.4297 48 36.7787 47.6314 36.4172 47.029L14.8172 11.029C14.0174 9.69594 14.9776 8 16.5322 8H35.8675Z" fill="#9B0F15"/>
<path d="M58.4174 8.97101C58.7788 8.3686 59.4299 8 60.1324 8H79.4676C81.0222 8 81.9824 9.69594 81.1826 11.029L59.5826 47.029C59.2212 47.6314 58.5702 48 57.8676 48H38.5324C36.9778 48 36.0176 46.3041 36.8174 44.971L58.4174 8.97101Z" fill="#F1333B"/>
<path fill-rule="evenodd" clip-rule="evenodd" d="M60.1323 6H79.4675C82.5767 6 84.4972 9.39189 82.8975 12.058L61.2975 48.058C60.5746 49.2628 59.2726 50 57.8675 50H38.5323C35.4231 50 33.5027 46.6081 35.1023 43.942L56.7023 7.94202C57.4252 6.7372 58.7272 6 60.1323 6ZM60.1323 8C59.4298 8 58.7788 8.3686 58.4173 8.97101L36.8173 44.971C36.0175 46.3041 36.9777 48 38.5323 48H57.8675C58.5701 48 59.2211 47.6314 59.5825 47.029L81.1825 11.029C81.9824 9.69594 81.0221 8 79.4675 8H60.1323Z" fill="#9B0F15"/>
<path fill-rule="evenodd" clip-rule="evenodd" d="M60.5021 9.13513C60.9797 9.41245 61.142 10.0244 60.8647 10.5021L51.8647 26.0021C51.5874 26.4797 50.9754 26.642 50.4978 26.3647C50.0202 26.0874 49.8578 25.4754 50.1351 24.9978L59.1351 9.49779C59.4125 9.02018 60.0244 8.85781 60.5021 9.13513Z" fill="#FE666D"/>
<path fill-rule="evenodd" clip-rule="evenodd" d="M16.4979 9.13513C16.0203 9.41245 15.858 10.0244 16.1353 10.5021L25.1353 26.0021C25.4126 26.4797 26.0246 26.642 26.5022 26.3647C26.9798 26.0874 27.1422 25.4754 26.8649 24.9978L17.8649 9.49779C17.5875 9.02018 16.9756 8.85781 16.4979 9.13513Z" fill="#DF3840"/>
<path d="M35.5 11.2812C35.5 11.9889 34.9404 12.5625 34.25 12.5625C33.5596 12.5625 33 11.9889 33 11.2812C33 10.5736 33.5596 10 34.25 10C34.9404 10 35.5 10.5736 35.5 11.2812Z" fill="#AA161D"/>
<path d="M31.1098 11.5938C31.1098 12.474 30.4136 13.1875 29.5549 13.1875C28.6961 13.1875 28 12.474 28 11.5938C28 10.7135 28.6961 10 29.5549 10C30.4136 10 31.1098 10.7135 31.1098 11.5938Z" fill="#AA161D"/>
<path d="M34.9999 16.1562C34.9999 17.0365 34.3038 17.75 33.445 17.75C32.5863 17.75 31.8901 17.0365 31.8901 16.1562C31.8901 15.276 32.5863 14.5625 33.445 14.5625C34.3038 14.5625 34.9999 15.276 34.9999 16.1562Z" fill="#AA161D"/>
<path d="M38.5549 13.9844C38.5549 14.4245 38.2068 14.7812 37.7774 14.7812C37.3481 14.7812 37 14.4245 37 13.9844C37 13.5443 37.3481 13.1875 37.7774 13.1875C38.2068 13.1875 38.5549 13.5443 38.5549 13.9844Z" fill="#AA161D"/>
<path d="M30.3322 15.3594C30.3322 15.7995 29.9842 16.1562 29.5548 16.1562C29.1254 16.1562 28.7773 15.7995 28.7773 15.3594C28.7773 14.9193 29.1254 14.5625 29.5548 14.5625C29.9842 14.5625 30.3322 14.9193 30.3322 15.3594Z" fill="#AA161D"/>
<path d="M25.9999 10.4844C25.9999 10.9245 25.6519 11.2812 25.2225 11.2812C24.7931 11.2812 24.4451 10.9245 24.4451 10.4844C24.4451 10.0443 24.7931 9.6875 25.2225 9.6875C25.6519 9.6875 25.9999 10.0443 25.9999 10.4844Z" fill="#AA161D"/>
<path d="M37.7773 19.5469C37.7773 19.987 37.4292 20.3438 36.9999 20.3438C36.5705 20.3438 36.2224 19.987 36.2224 19.5469C36.2224 19.1068 36.5705 18.75 36.9999 18.75C37.4292 18.75 37.7773 19.1068 37.7773 19.5469Z" fill="#AA161D"/>
<path d="M33.7773 20.3438C33.7773 20.7839 33.4292 21.1406 32.9999 21.1406C32.5705 21.1406 32.2224 20.7839 32.2224 20.3438C32.2224 19.9036 32.5705 19.5469 32.9999 19.5469C33.4292 19.5469 33.7773 19.9036 33.7773 20.3438Z" fill="#AA161D"/>
<path d="M41.5305 17.4531C41.5305 18.1694 40.964 18.75 40.2652 18.75C39.5665 18.75 39 18.1694 39 17.4531C39 16.7369 39.5665 16.1562 40.2652 16.1562C40.964 16.1562 41.5305 16.7369 41.5305 17.4531Z" fill="#AA161D"/>
<path d="M43.1799 21.1406C43.1799 21.5807 42.8318 21.9375 42.4024 21.9375C41.9731 21.9375 41.625 21.5807 41.625 21.1406C41.625 20.7005 41.9731 20.3438 42.4024 20.3438C42.8318 20.3438 43.1799 20.7005 43.1799 21.1406Z" fill="#AA161D"/>
<path d="M75 61C75 75.9117 62.9117 88 48 88C33.0883 88 21 75.9117 21 61C21 46.0883 33.0883 34 48 34C62.9117 34 75 46.0883 75 61Z" fill="#FFBB0D"/>
<path fill-rule="evenodd" clip-rule="evenodd" d="M77 61C77 77.0163 64.0163 90 48 90C31.9837 90 19 77.0163 19 61C19 44.9837 31.9837 32 48 32C64.0163 32 77 44.9837 77 61ZM48 88C62.9117 88 75 75.9117 75 61C75 46.0883 62.9117 34 48 34C33.0883 34 21 46.0883 21 61C21 75.9117 33.0883 88 48 88Z" fill="#E89B05"/>
<path fill-rule="evenodd" clip-rule="evenodd" d="M23 62C22.4477 62 22 61.5523 22 61C22 46.6406 33.6406 35 48 35C48.5523 35 49 35.4477 49 36C49 36.5523 48.5523 37 48 37C34.7452 37 24 47.7452 24 61C24 61.5523 23.5523 62 23 62Z" fill="#E8AA0A"/>
<path fill-rule="evenodd" clip-rule="evenodd" d="M73 60C73.5523 60 74 60.4477 74 61C74 75.3594 62.3594 87 48 87C47.4477 87 47 86.5523 47 86C47 85.4477 47.4477 85 48 85C61.2548 85 72 74.2548 72 61C72 60.4477 72.4477 60 73 60Z" fill="#E8AA0A"/>
<path d="M68 61C68 72.0457 59.0457 81 48 81C36.9543 81 28 72.0457 28 61C28 49.9543 36.9543 41 48 41C59.0457 41 68 49.9543 68 61Z" fill="#FFDD28"/>
<path fill-rule="evenodd" clip-rule="evenodd" d="M70 61C70 73.1503 60.1503 83 48 83C35.8497 83 26 73.1503 26 61C26 48.8497 35.8497 39 48 39C60.1503 39 70 48.8497 70 61ZM48 81C59.0457 81 68 72.0457 68 61C68 49.9543 59.0457 41 48 41C36.9543 41 28 49.9543 28 61C28 72.0457 36.9543 81 48 81Z" fill="#E89B05"/>
<path fill-rule="evenodd" clip-rule="evenodd" d="M48 78C57.3888 78 65 70.3888 65 61C65 60.4477 65.4477 60 66 60C66.5523 60 67 60.4477 67 61C67 71.4934 58.4934 80 48 80C47.4477 80 47 79.5523 47 79C47 78.4477 47.4477 78 48 78Z" fill="#ECC704"/>
<path fill-rule="evenodd" clip-rule="evenodd" d="M48 44C38.6112 44 31 51.6112 31 61C31 61.5523 30.5523 62 30 62C29.4477 62 29 61.5523 29 61C29 50.5066 37.5066 42 48 42C48.5523 42 49 42.4477 49 43C49 43.5523 48.5523 44 48 44Z" fill="#FFEF9C"/>
<path d="M50.3867 69H47V55.9453L42.957 57.1992V54.4453L50.0234 51.9141H50.3867V69Z" fill="#FFEF9C"/>
<path fill-rule="evenodd" clip-rule="evenodd" d="M52.3867 69C52.3867 70.1046 51.4913 71 50.3867 71H47C45.8954 71 45 70.1046 45 69V58.6596L43.5495 59.1095C42.9425 59.2977 42.2822 59.1863 41.7706 58.8093C41.259 58.4324 40.957 57.8347 40.957 57.1992V54.4453C40.957 53.6008 41.4875 52.8473 42.2826 52.5625L49.349 50.0312C49.5654 49.9537 49.7936 49.9141 50.0234 49.9141H50.3867C51.4913 49.9141 52.3867 50.8095 52.3867 51.9141V69ZM47 55.9453V69H50.3867V51.9141H50.0234L42.957 54.4453V57.1992L47 55.9453Z" fill="#E89B05"/>
</g>
<defs>
<filter id="filter0_d_20_735" x="0" y="0" width="98" height="98" filterUnits="userSpaceOnUse" color-interpolation-filters="sRGB">
<feFlood flood-opacity="0" result="BackgroundImageFix"/>
<feColorMatrix in="SourceAlpha" type="matrix" values="0 0 0 0 0 0 0 0 0 0 0 0 0 0 0 0 0 0 127 0" result="hardAlpha"/>
<feOffset dx="2" dy="2"/>
<feColorMatrix type="matrix" values="0 0 0 0 0.637788 0 0 0 0 0.545996 0 0 0 0 0.47948 0 0 0 0.2 0"/>
<feBlend mode="normal" in2="BackgroundImageFix" result="effect1_dropShadow_20_735"/>
<feBlend mode="normal" in="SourceGraphic" in2="effect1_dropShadow_20_735" result="shape"/>
</filter>
</defs>
</svg>
