<svg width="96" height="96" viewBox="0 0 96 96" fill="none" xmlns="http://www.w3.org/2000/svg">
<g filter="url(#filter0_d_20_736)">
<path d="M37.5826 8.97101C37.2212 8.3686 36.5701 8 35.8676 8H16.5324C14.9778 8 14.0176 9.69594 14.8174 11.029L36.4174 47.029C36.7788 47.6314 37.4298 48 38.1324 48H57.4676C59.0222 48 59.9824 46.3041 59.1826 44.971L37.5826 8.97101Z" fill="#C52229"/>
<path fill-rule="evenodd" clip-rule="evenodd" d="M35.8675 6H16.5322C13.423 6 11.5026 9.39189 13.1022 12.058L34.7022 48.058C35.4251 49.2628 36.7272 50 38.1322 50H57.4675C60.5766 50 62.4971 46.6081 60.8974 43.942L39.2974 7.94202C38.5745 6.7372 37.2725 6 35.8675 6ZM35.8675 8C36.57 8 37.221 8.3686 37.5824 8.97101L59.1824 44.971C59.9823 46.3041 59.022 48 57.4675 48H38.1322C37.4297 48 36.7787 47.6314 36.4172 47.029L14.8172 11.029C14.0174 9.69594 14.9776 8 16.5322 8H35.8675Z" fill="#9B0F15"/>
<path d="M58.4174 8.97101C58.7788 8.3686 59.4299 8 60.1324 8H79.4676C81.0222 8 81.9824 9.69594 81.1826 11.029L59.5826 47.029C59.2212 47.6314 58.5702 48 57.8676 48H38.5324C36.9778 48 36.0176 46.3041 36.8174 44.971L58.4174 8.97101Z" fill="#F1333B"/>
<path fill-rule="evenodd" clip-rule="evenodd" d="M60.1323 6H79.4675C82.5767 6 84.4972 9.39189 82.8975 12.058L61.2975 48.058C60.5746 49.2628 59.2726 50 57.8675 50H38.5323C35.4231 50 33.5027 46.6081 35.1023 43.942L56.7023 7.94202C57.4252 6.7372 58.7272 6 60.1323 6ZM60.1323 8C59.4298 8 58.7788 8.3686 58.4173 8.97101L36.8173 44.971C36.0175 46.3041 36.9777 48 38.5323 48H57.8675C58.5701 48 59.2211 47.6314 59.5825 47.029L81.1825 11.029C81.9824 9.69594 81.0221 8 79.4675 8H60.1323Z" fill="#9B0F15"/>
<path fill-rule="evenodd" clip-rule="evenodd" d="M60.5021 9.13513C60.9797 9.41245 61.142 10.0244 60.8647 10.5021L51.8647 26.0021C51.5874 26.4797 50.9754 26.642 50.4978 26.3647C50.0202 26.0874 49.8578 25.4754 50.1351 24.9978L59.1351 9.49779C59.4125 9.02018 60.0244 8.85781 60.5021 9.13513Z" fill="#FE666D"/>
<path fill-rule="evenodd" clip-rule="evenodd" d="M16.4979 9.13513C16.0203 9.41245 15.858 10.0244 16.1353 10.5021L25.1353 26.0021C25.4126 26.4797 26.0246 26.642 26.5022 26.3647C26.9798 26.0874 27.1422 25.4754 26.8649 24.9978L17.8649 9.49779C17.5875 9.02018 16.9756 8.85781 16.4979 9.13513Z" fill="#DF3840"/>
<path d="M35.5 11.2812C35.5 11.9889 34.9404 12.5625 34.25 12.5625C33.5596 12.5625 33 11.9889 33 11.2812C33 10.5736 33.5596 10 34.25 10C34.9404 10 35.5 10.5736 35.5 11.2812Z" fill="#AA161D"/>
<path d="M31.1098 11.5938C31.1098 12.474 30.4136 13.1875 29.5549 13.1875C28.6961 13.1875 28 12.474 28 11.5938C28 10.7135 28.6961 10 29.5549 10C30.4136 10 31.1098 10.7135 31.1098 11.5938Z" fill="#AA161D"/>
<path d="M34.9999 16.1562C34.9999 17.0365 34.3038 17.75 33.445 17.75C32.5863 17.75 31.8901 17.0365 31.8901 16.1562C31.8901 15.276 32.5863 14.5625 33.445 14.5625C34.3038 14.5625 34.9999 15.276 34.9999 16.1562Z" fill="#AA161D"/>
<path d="M38.5549 13.9844C38.5549 14.4245 38.2068 14.7812 37.7774 14.7812C37.3481 14.7812 37 14.4245 37 13.9844C37 13.5443 37.3481 13.1875 37.7774 13.1875C38.2068 13.1875 38.5549 13.5443 38.5549 13.9844Z" fill="#AA161D"/>
<path d="M30.3322 15.3594C30.3322 15.7995 29.9842 16.1562 29.5548 16.1562C29.1254 16.1562 28.7773 15.7995 28.7773 15.3594C28.7773 14.9193 29.1254 14.5625 29.5548 14.5625C29.9842 14.5625 30.3322 14.9193 30.3322 15.3594Z" fill="#AA161D"/>
<path d="M25.9999 10.4844C25.9999 10.9245 25.6519 11.2812 25.2225 11.2812C24.7931 11.2812 24.4451 10.9245 24.4451 10.4844C24.4451 10.0443 24.7931 9.6875 25.2225 9.6875C25.6519 9.6875 25.9999 10.0443 25.9999 10.4844Z" fill="#AA161D"/>
<path d="M37.7773 19.5469C37.7773 19.987 37.4292 20.3438 36.9999 20.3438C36.5705 20.3438 36.2224 19.987 36.2224 19.5469C36.2224 19.1068 36.5705 18.75 36.9999 18.75C37.4292 18.75 37.7773 19.1068 37.7773 19.5469Z" fill="#AA161D"/>
<path d="M33.7773 20.3438C33.7773 20.7839 33.4292 21.1406 32.9999 21.1406C32.5705 21.1406 32.2224 20.7839 32.2224 20.3438C32.2224 19.9036 32.5705 19.5469 32.9999 19.5469C33.4292 19.5469 33.7773 19.9036 33.7773 20.3438Z" fill="#AA161D"/>
<path d="M41.5305 17.4531C41.5305 18.1694 40.964 18.75 40.2652 18.75C39.5665 18.75 39 18.1694 39 17.4531C39 16.7369 39.5665 16.1562 40.2652 16.1562C40.964 16.1562 41.5305 16.7369 41.5305 17.4531Z" fill="#AA161D"/>
<path d="M43.1799 21.1406C43.1799 21.5807 42.8318 21.9375 42.4024 21.9375C41.9731 21.9375 41.625 21.5807 41.625 21.1406C41.625 20.7005 41.9731 20.3438 42.4024 20.3438C42.8318 20.3438 43.1799 20.7005 43.1799 21.1406Z" fill="#AA161D"/>
<path d="M75 61C75 75.9117 62.9117 88 48 88C33.0883 88 21 75.9117 21 61C21 46.0883 33.0883 34 48 34C62.9117 34 75 46.0883 75 61Z" fill="#BCCCD2"/>
<path fill-rule="evenodd" clip-rule="evenodd" d="M77 61C77 77.0163 64.0163 90 48 90C31.9837 90 19 77.0163 19 61C19 44.9837 31.9837 32 48 32C64.0163 32 77 44.9837 77 61ZM48 88C62.9117 88 75 75.9117 75 61C75 46.0883 62.9117 34 48 34C33.0883 34 21 46.0883 21 61C21 75.9117 33.0883 88 48 88Z" fill="#81A5B0"/>
<path fill-rule="evenodd" clip-rule="evenodd" d="M23 62C22.4477 62 22 61.5523 22 61C22 46.6406 33.6406 35 48 35C48.5523 35 49 35.4477 49 36C49 36.5523 48.5523 37 48 37C34.7452 37 24 47.7452 24 61C24 61.5523 23.5523 62 23 62Z" fill="#D0DEE3"/>
<path fill-rule="evenodd" clip-rule="evenodd" d="M73 60C73.5523 60 74 60.4477 74 61C74 75.3594 62.3594 87 48 87C47.4477 87 47 86.5523 47 86C47 85.4477 47.4477 85 48 85C61.2548 85 72 74.2548 72 61C72 60.4477 72.4477 60 73 60Z" fill="#A2B9C1"/>
<path d="M68 61C68 72.0457 59.0457 81 48 81C36.9543 81 28 72.0457 28 61C28 49.9543 36.9543 41 48 41C59.0457 41 68 49.9543 68 61Z" fill="#C7D4D8"/>
<path fill-rule="evenodd" clip-rule="evenodd" d="M70 61C70 73.1503 60.1503 83 48 83C35.8497 83 26 73.1503 26 61C26 48.8497 35.8497 39 48 39C60.1503 39 70 48.8497 70 61ZM48 81C59.0457 81 68 72.0457 68 61C68 49.9543 59.0457 41 48 41C36.9543 41 28 49.9543 28 61C28 72.0457 36.9543 81 48 81Z" fill="#81A5B0"/>
<path fill-rule="evenodd" clip-rule="evenodd" d="M48 78C57.3888 78 65 70.3888 65 61C65 60.4477 65.4477 60 66 60C66.5523 60 67 60.4477 67 61C67 71.4934 58.4934 80 48 80C47.4477 80 47 79.5523 47 79C47 78.4477 47.4477 78 48 78Z" fill="#B5C3C8"/>
<path fill-rule="evenodd" clip-rule="evenodd" d="M48 44C38.6112 44 31 51.6112 31 61C31 61.5523 30.5523 62 30 62C29.4477 62 29 61.5523 29 61C29 50.5066 37.5066 42 48 42C48.5523 42 49 42.4477 49 43C49 43.5523 48.5523 44 48 44Z" fill="#D9EAEF"/>
<mask id="path-25-outside-1_20_736" maskUnits="userSpaceOnUse" x="39" y="49" width="17" height="22" fill="black">
<rect fill="white" x="39" y="49" width="17" height="22"/>
<path d="M53.8555 69H42.1602V66.6797L47.6797 60.7969C48.4375 59.9688 48.9961 59.2461 49.3555 58.6289C49.7227 58.0117 49.9062 57.4258 49.9062 56.8711C49.9062 56.1133 49.7148 55.5195 49.332 55.0898C48.9492 54.6523 48.4023 54.4336 47.6914 54.4336C46.9258 54.4336 46.3203 54.6992 45.875 55.2305C45.4375 55.7539 45.2188 56.4453 45.2188 57.3047H41.8203C41.8203 56.2656 42.0664 55.3164 42.5586 54.457C43.0586 53.5977 43.7617 52.9258 44.668 52.4414C45.5742 51.9492 46.6016 51.7031 47.75 51.7031C49.5078 51.7031 50.8711 52.125 51.8398 52.9688C52.8164 53.8125 53.3047 55.0039 53.3047 56.543C53.3047 57.3867 53.0859 58.2461 52.6484 59.1211C52.2109 59.9961 51.4609 61.0156 50.3984 62.1797L46.5195 66.2695H53.8555V69Z"/>
</mask>
<path d="M53.8555 69H42.1602V66.6797L47.6797 60.7969C48.4375 59.9688 48.9961 59.2461 49.3555 58.6289C49.7227 58.0117 49.9062 57.4258 49.9062 56.8711C49.9062 56.1133 49.7148 55.5195 49.332 55.0898C48.9492 54.6523 48.4023 54.4336 47.6914 54.4336C46.9258 54.4336 46.3203 54.6992 45.875 55.2305C45.4375 55.7539 45.2188 56.4453 45.2188 57.3047H41.8203C41.8203 56.2656 42.0664 55.3164 42.5586 54.457C43.0586 53.5977 43.7617 52.9258 44.668 52.4414C45.5742 51.9492 46.6016 51.7031 47.75 51.7031C49.5078 51.7031 50.8711 52.125 51.8398 52.9688C52.8164 53.8125 53.3047 55.0039 53.3047 56.543C53.3047 57.3867 53.0859 58.2461 52.6484 59.1211C52.2109 59.9961 51.4609 61.0156 50.3984 62.1797L46.5195 66.2695H53.8555V69Z" fill="#D9EAEF"/>
<path d="M53.8555 69V71C54.96 71 55.8555 70.1046 55.8555 69H53.8555ZM42.1602 69H40.1602C40.1602 70.1046 41.0556 71 42.1602 71V69ZM42.1602 66.6797L40.7016 65.3112C40.3538 65.682 40.1602 66.1713 40.1602 66.6797H42.1602ZM47.6797 60.7969L49.1382 62.1653C49.1439 62.1593 49.1495 62.1532 49.1552 62.1471L47.6797 60.7969ZM49.3555 58.6289L47.6367 57.6063C47.6335 57.6117 47.6303 57.6171 47.6271 57.6225L49.3555 58.6289ZM49.332 55.0898L47.8269 56.4069C47.8308 56.4113 47.8347 56.4158 47.8387 56.4203L49.332 55.0898ZM45.875 55.2305L44.3423 53.9457L44.3404 53.9478L45.875 55.2305ZM45.2188 57.3047V59.3047C46.3233 59.3047 47.2188 58.4093 47.2188 57.3047H45.2188ZM41.8203 57.3047H39.8203C39.8203 58.4093 40.7157 59.3047 41.8203 59.3047V57.3047ZM42.5586 54.457L40.8299 53.4512L40.8231 53.4631L42.5586 54.457ZM44.668 52.4414L45.6107 54.2053L45.6225 54.1989L44.668 52.4414ZM51.8398 52.9688L50.5263 54.4769L50.5323 54.4821L51.8398 52.9688ZM50.3984 62.1797L51.8496 63.556C51.8583 63.5467 51.867 63.5374 51.8756 63.528L50.3984 62.1797ZM46.5195 66.2695L45.0684 64.8932C44.5184 65.4732 44.3664 66.3249 44.6821 67.0593C44.9977 67.7936 45.7202 68.2695 46.5195 68.2695V66.2695ZM53.8555 66.2695H55.8555C55.8555 65.165 54.96 64.2695 53.8555 64.2695V66.2695ZM53.8555 67H42.1602V71H53.8555V67ZM44.1602 69V66.6797H40.1602V69H44.1602ZM43.6187 68.0481L49.1382 62.1653L46.2212 59.4284L40.7016 65.3112L43.6187 68.0481ZM49.1552 62.1471C49.9613 61.2661 50.624 60.4249 51.0838 59.6353L47.6271 57.6225C47.3681 58.0673 46.9137 58.6714 46.2042 59.4467L49.1552 62.1471ZM51.0743 59.6515C51.5724 58.8142 51.9062 57.8771 51.9062 56.8711H47.9062C47.9062 56.9745 47.8729 57.2092 47.6367 57.6063L51.0743 59.6515ZM51.9062 56.8711C51.9062 55.7812 51.6265 54.6587 50.8254 53.7594L47.8387 56.4203C47.8299 56.4104 47.8416 56.4165 47.8592 56.4711C47.8789 56.5324 47.9062 56.6574 47.9062 56.8711H51.9062ZM50.8372 53.7728C49.9913 52.8061 48.8393 52.4336 47.6914 52.4336V56.4336C47.8438 56.4336 47.8982 56.4571 47.892 56.4546C47.8887 56.4533 47.8767 56.4479 47.8608 56.4367C47.8448 56.4254 47.8332 56.4141 47.8269 56.4069L50.8372 53.7728ZM47.6914 52.4336C46.4041 52.4336 45.2103 52.9102 44.3423 53.9457L47.4077 56.5153C47.4278 56.4913 47.4414 56.48 47.4475 56.4754C47.4533 56.471 47.4587 56.4678 47.4666 56.4643C47.4791 56.4588 47.5418 56.4336 47.6914 56.4336V52.4336ZM44.3404 53.9478C43.5308 54.9165 43.2188 56.1014 43.2188 57.3047H47.2188C47.2188 56.7892 47.3442 56.5913 47.4096 56.5131L44.3404 53.9478ZM45.2188 55.3047H41.8203V59.3047H45.2188V55.3047ZM43.8203 57.3047C43.8203 56.5965 43.9839 55.9927 44.2941 55.451L40.8231 53.4631C40.1489 54.6401 39.8203 55.9347 39.8203 57.3047H43.8203ZM44.2873 55.4628C44.5942 54.9353 45.0202 54.5209 45.6107 54.2053L43.7252 50.6775C42.5033 51.3307 41.523 52.2601 40.8299 53.4512L44.2873 55.4628ZM45.6225 54.1989C46.2036 53.8833 46.8964 53.7031 47.75 53.7031V49.7031C46.3067 49.7031 44.9448 50.0151 43.7135 50.6839L45.6225 54.1989ZM47.75 53.7031C49.2033 53.7031 50.0368 54.0506 50.5263 54.4769L53.1534 51.4606C51.7054 50.1994 49.8123 49.7031 47.75 49.7031V53.7031ZM50.5323 54.4821C50.984 54.8724 51.3047 55.4621 51.3047 56.543H55.3047C55.3047 54.5457 54.6488 52.7526 53.1474 51.4554L50.5323 54.4821ZM51.3047 56.543C51.3047 57.0302 51.1804 57.5851 50.8596 58.2267L54.4373 60.0155C54.9915 58.9071 55.3047 57.7432 55.3047 56.543H51.3047ZM50.8596 58.2267C50.5391 58.8676 49.9253 59.7313 48.9213 60.8314L51.8756 63.528C52.9965 62.2999 53.8828 61.1246 54.4373 60.0155L50.8596 58.2267ZM48.9473 60.8034L45.0684 64.8932L47.9707 67.6458L51.8496 63.556L48.9473 60.8034ZM46.5195 68.2695H53.8555V64.2695H46.5195V68.2695ZM51.8555 66.2695V69H55.8555V66.2695H51.8555Z" fill="#81A5B0" mask="url(#path-25-outside-1_20_736)"/>
</g>
<defs>
<filter id="filter0_d_20_736" x="0" y="0" width="98" height="98" filterUnits="userSpaceOnUse" color-interpolation-filters="sRGB">
<feFlood flood-opacity="0" result="BackgroundImageFix"/>
<feColorMatrix in="SourceAlpha" type="matrix" values="0 0 0 0 0 0 0 0 0 0 0 0 0 0 0 0 0 0 127 0" result="hardAlpha"/>
<feOffset dx="2" dy="2"/>
<feColorMatrix type="matrix" values="0 0 0 0 0.637788 0 0 0 0 0.545996 0 0 0 0 0.47948 0 0 0 0.2 0"/>
<feBlend mode="normal" in2="BackgroundImageFix" result="effect1_dropShadow_20_736"/>
<feBlend mode="normal" in="SourceGraphic" in2="effect1_dropShadow_20_736" result="shape"/>
</filter>
</defs>
</svg>
