<svg xmlns="http://www.w3.org/2000/svg" xml:space="preserve" width="72" height="72" id="timer">
  <path d="M37.881 8.313V5.175a2 2 0 0 0-4 0v3.156C18.165 9.423 5.709 22.548 5.709 38.537c0 16.699 13.589 30.288 30.291 30.288s30.291-13.589 30.291-30.288c0-16.069-12.581-29.249-28.41-30.224zM36 64.825c-14.497 0-26.291-11.794-26.291-26.288 0-14.496 11.794-26.289 26.291-26.289s26.291 11.793 26.291 26.289c0 14.494-11.794 26.288-26.291 26.288z"></path>
  <path d="M25.733 56.689c-6.529-3.703-10.585-10.66-10.585-18.153 0-.554-.447-1-1-1-.553 0-1 .446-1 1 0 8.212 4.445 15.835 11.599 19.894a1 1 0 0 0 .986-1.741zM31.187 59.432a22.411 22.411 0 0 1-1.153-.334 1 1 0 0 0-.608 1.905c.416.134.834.254 1.261.363a1 1 0 0 0 1.218-.718.997.997 0 0 0-.718-1.216zM61.807 18.746a1.999 1.999 0 0 0 2.824-2.832l-5.193-5.18a1.998 1.998 0 0 0-2.828.004 2.001 2.001 0 0 0 .004 2.828l5.193 5.18zM37.88 38.164V22.175a2 2 0 0 0-4 0v16.853c0 .551.287 1.076.687 1.453l5.853 5.47c.387.364.88.546 1.373.546a1.92 1.92 0 0 0 1.423-.628c.761-.804.693-2.069-.11-2.827l-5.226-4.878z"></path>
</svg>
